<?xml version="1.0" encoding="utf-8"?>
<!-- Generator: Adobe Illustrator 21.1.0, SVG Export Plug-In . SVG Version: 6.00 Build 0)  -->
<svg version="1.1" id="Layer_1" xmlns="http://www.w3.org/2000/svg" xmlns:xlink="http://www.w3.org/1999/xlink" x="0px" y="0px"
	 viewBox="0 0 94 94" style="enable-background:new 0 0 94 94;" xml:space="preserve">
<path d="M94,73.9l-28-28l24.1-24.1v-3.4L75.6,3.9h-3.4L48.1,28l-7.6-7.6l-2.9-2.9L20.1,0L0,20.1l18.5,18.5l2.9,2.9l6.6,6.6
	L12.4,63.7l-0.6,0.9L3.9,87L7,90.1l22.4-7.9l0.9-0.6L45.9,66l28,28L94,73.9z M73.9,9L85,20.1l-8.7,8.7L65.2,17.7L73.9,9z M24.8,38
	l-2.9-2.9L6.8,20.1L20.1,6.8l8.7,8.7l-5.6,5.6l2.4,2.4l5.6-5.6l3,3l2.8,2.9l1.1,1.1l-5.6,5.6l2.4,2.4l5.6-5.6l4.1,4.1L31.4,44.7
	L24.8,38z M27.2,77.8l-17.1,6l6-17l5.8,5.8l2.4-2.4l-5.8-5.8l44.3-44.2l11.1,11.1L27.2,77.8z M62.6,49.3l3.1,3.1L60.1,58l2.4,2.4
	l5.6-5.6l8,8l-5.6,5.5l2.4,2.4l5.6-5.6l8.7,8.7L73.9,87.2L49.3,62.6L62.6,49.3z"/>
</svg>
