<?xml version="1.0" encoding="utf-8"?>
<svg version="1.1" id="Layer_1" xmlns="http://www.w3.org/2000/svg" xmlns:xlink="http://www.w3.org/1999/xlink" x="0px" y="0px"
	 viewBox="0 0 50 90" style="enable-background:new 0 0 50 90;" xml:space="preserve">
<g>
	<path d="M24.4,84C24.4,84,24.4,84,24.4,84c-1.7,0-3,1.3-3,3c0,1.7,1.3,3,3,3c0,0,0,0,0,0c0.8,0,1.5-0.3,2.1-0.9
		c0.6-0.6,0.9-1.3,0.9-2.1C27.4,85.4,26.1,84,24.4,84z"/>
	<path d="M25.2,0c-0.1,0-0.2,0-0.2,0C11.3,0,0.1,11,0,24.6c0,0.8,0.7,1.5,1.5,1.5c0,0,0,0,0,0c0.8,0,1.5-0.7,1.5-1.5
		C3.1,12.6,13,3,25,3c0.1,0,0.1,0,0.2,0C37.3,3.1,47.1,13,47,25c-0.1,8.4-5.1,16.2-12.8,20c-9.5,4.6-11.5,12-11.6,17.4l-0.1,12.1
		c0,0.8,0.7,1.5,1.5,1.5c0,0,0,0,0,0c0.8,0,1.5-0.7,1.5-1.5l0.1-12.1c0-4.6,1.8-10.8,9.9-14.7c8.7-4.2,14.4-13.1,14.5-22.6
		C50.1,11.4,39,0.1,25.2,0z"/>
</g>
</svg>
