<?xml version="1.0" encoding="utf-8"?>
<!-- Generator: Adobe Illustrator 21.1.0, SVG Export Plug-In . SVG Version: 6.00 Build 0)  -->
<svg version="1.1" id="Layer_1" xmlns="http://www.w3.org/2000/svg" xmlns:xlink="http://www.w3.org/1999/xlink" x="0px" y="0px"
	 viewBox="0 0 97.9 73.7" style="enable-background:new 0 0 97.9 73.7;" xml:space="preserve">
<g>
	<path d="M92.6,0H5.3C2.4,0,0,2.4,0,5.3v63.1c0,2.9,2.4,5.3,5.3,5.3h87.3c2.9,0,5.3-2.4,5.3-5.3V5.3C97.8,2.4,95.4,0,92.6,0z
		 M5.1,2.9h87.3c1.4,0,2.5,1.1,2.5,2.5v5.7H2.5V5.4C2.7,3.9,3.7,2.9,5.1,2.9z M92.6,71H5.3c-1.4,0-2.5-1.1-2.5-2.5V13.8h92.4v54.7
		C95.1,70,93.9,71,92.6,71z"/>
	<path d="M31.2,8.4h35.3c0.8,0,1.4-0.6,1.4-1.4c0-0.8-0.6-1.4-1.4-1.4H31.2c-0.8,0-1.4,0.6-1.4,1.4C29.8,7.7,30.4,8.4,31.2,8.4z"/>
	<circle cx="6.7" cy="6.9" r="1.4"/>
	<circle cx="11.2" cy="6.9" r="1.4"/>
	<circle cx="15.9" cy="6.9" r="1.4"/>
	<path d="M80.7,22H44.1c-0.7,0-1.3,0.6-1.3,1.3s0.6,1.3,1.3,1.3h36.6c0.7,0,1.3-0.6,1.3-1.3C81.8,22.7,81.3,22,80.7,22z"/>
	<path d="M80.7,29H44.1c-0.7,0-1.3,0.6-1.3,1.3s0.6,1.3,1.3,1.3h36.6c0.7,0,1.3-0.6,1.3-1.3S81.3,29,80.7,29z"/>
	<path d="M80.7,36H44.1c-0.7,0-1.3,0.6-1.3,1.3s0.6,1.3,1.3,1.3h36.6c0.7,0,1.3-0.6,1.3-1.3C81.8,36.5,81.3,36,80.7,36z"/>
	<path d="M18.4,39.5h17c1.5,0,2.7-1.2,2.7-2.7V23.6c0-1.5-1.2-2.7-2.7-2.7h-17c-1.5,0-2.7,1.2-2.7,2.7v13.2
		C15.8,38.4,17.1,39.5,18.4,39.5z"/>
	<path d="M53.7,59.9H17.1c-0.7,0-1.3,0.6-1.3,1.3c0,0.7,0.6,1.3,1.3,1.3h36.6c0.7,0,1.3-0.6,1.3-1.3C54.9,60.5,54.3,59.9,53.7,59.9z
		"/>
	<path d="M53.7,52.9H17.1c-0.7,0-1.3,0.6-1.3,1.3s0.6,1.3,1.3,1.3h36.6c0.7,0,1.3-0.6,1.3-1.3C54.9,53.4,54.3,52.9,53.7,52.9z"/>
	<path d="M53.7,45.9H17.1c-0.7,0-1.3,0.6-1.3,1.3s0.6,1.3,1.3,1.3h36.6c0.7,0,1.3-0.6,1.3-1.3S54.3,45.9,53.7,45.9z"/>
	<path d="M79.2,44.9h-17c-1.5,0-2.7,1.2-2.7,2.7v13.2c0,1.5,1.2,2.7,2.7,2.7h17c1.5,0,2.7-1.2,2.7-2.7V47.6
		C81.8,46,80.7,44.9,79.2,44.9z"/>
</g>
</svg>
